<?xml version="1.0" encoding="UTF-8" standalone="no"?>
<svg viewBox="0 0 100 85" xmlns="http://www.w3.org/2000/svg">
    <g fill="#0066cc">
        <path
            d="M 7.5 0 C 3.3448006 0 0 3.3448006 0 7.5 L 0 62.5 C 0 66.655061 3.3448006 70 7.5 70 L 40 70 L 40 77.5 L 25 77.5 L 25 85 L 75 85 L 75 77.5 L 60 77.5 L 60 70 L 92.5 70 C 96.65478 70 100 66.655061 100 62.5 L 100 7.5 C 100 3.3448006 96.65478 0 92.5 0 L 7.5 0 z M 7.5 7.5 L 92.5 7.5 L 92.5 62.5 L 7.5 62.5 L 7.5 7.5 z"
        />
        <rect
            width="5"
            height="25.824"
            x="74.728966"
            y="23.293884"
            transform="matrix(1,0,-0.25884526,0.9659188,0,0)"
        />
    </g>
    <g fill="none" stroke="#0066cc" stroke-width="5">
        <path
            d="M 22.5,25 12.5,35 22.5,45"
        />
        <path
            d="M 77.5,45 87.5,35 77.5,25"
        />
        <path
            d="M 40.745333,41.427876 A 7.5,10 0 0 1 32.434849,44.396926 7.5,10 0 0 1 27.5,35 a 7.5,10 0 0 1 4.934849,-9.396926 7.5,10 0 0 1 8.310484,2.96905"
        />
        <path
            d="M 58.245333,41.427876 A 7.5,10 0 0 1 49.934849,44.396926 7.5,10 0 0 1 45,35 a 7.5,10 0 0 1 4.934849,-9.396926 7.5,10 0 0 1 8.310484,2.96905"
        />
    </g>
</svg>
